<svg width="250" height="155" viewBox="0 0 250 155" fill="none" xmlns="http://www.w3.org/2000/svg"><path d="M39.24 131.21h-.88v-9.52h1.28l4.3 8.28 4.31-8.27h1.32v9.52h-.86v-8.4l-4.41 8.38h-.67l-4.4-8.37V131.2zm13.67 0l4.15-9.52h1.19l4.15 9.52h-.94l-.94-2.13h-5.68l-.91 2.1-1.02.03zm2.35-3.07h4.83l-2.43-5.48-2.4 5.48zm13.44 3.19a5.81 5.81 0 01-1.6-.15c-.33-.1-.61-.27-.83-.52a2.5 2.5 0 01-.52-1.06 7.85 7.85 0 01-.16-1.76v-2.6c-.02-.63.04-1.27.16-1.89.08-.4.26-.78.52-1.1.22-.26.52-.44.84-.52a6.38 6.38 0 011.59-.16h2.25a3.5 3.5 0 012.37.59 2.84 2.84 0 01.61 2.1v.51h-.82v-.14a2.47 2.47 0 00-.38-1.54 1.6 1.6 0 00-1.29-.45h-3.08c-.34-.01-.67.04-.99.16-.23.12-.43.3-.56.54-.09.2-.15.4-.19.62-.04.4-.07.81-.05 1.22v2.53c-.02.4 0 .81.05 1.21.04.22.1.44.2.63.12.24.32.42.55.53.32.12.65.18 1 .16h3.07a1.75 1.75 0 001.38-.44c.29-.45.42-.99.37-1.54v-.25h.83v.46c0 .5-.04.97-.14 1.44-.07.32-.23.63-.45.87-.2.24-.49.4-.8.47a8 8 0 01-1.68.14l-2.25-.06zm14.66-9.63c.53-.02 1.07.03 1.59.14.33.08.63.24.89.47.3.3.52.68.63 1.1.15.57.21 1.16.2 1.75v2.58c.01.6-.05 1.19-.2 1.77-.11.41-.33.79-.63 1.1-.25.22-.56.38-.9.47-.5.1-1.04.15-1.58.14h-5.38v-9.52h5.38zm.57 1.05h-5.06v7.4h5.06a1.69 1.69 0 001.4-.51c.33-.54.47-1.17.41-1.8v-2.77a3.18 3.18 0 00-.37-1.82 1.75 1.75 0 00-1.44-.5zm9.9 8.58a6.66 6.66 0 01-1.7-.15 1.89 1.89 0 01-.9-.52c-.28-.3-.46-.67-.56-1.07a7.43 7.43 0 01-.17-1.75v-2.6a8.6 8.6 0 01.17-1.89c.09-.41.28-.8.56-1.1.24-.26.56-.44.9-.52a7.03 7.03 0 011.68-.16h2.4c.56-.01 1.13.04 1.69.16.34.09.65.26.9.51.27.31.46.68.54 1.09.13.59.19 1.19.17 1.8v2.65a7.5 7.5 0 01-.17 1.8c-.08.4-.27.77-.54 1.08a1.8 1.8 0 01-.89.52c-.56.12-1.13.17-1.7.15h-2.39zm2.8-8.7h-3.24c-.36-.02-.73.04-1.07.16-.25.1-.45.3-.58.53-.11.2-.19.42-.23.63-.04.41-.07.82-.06 1.23v2.5c0 .4.02.81.07 1.22.03.22.1.44.21.64.14.24.34.42.59.53.35.12.7.18 1.07.16h3.23c.37.02.73-.04 1.08-.16.25-.11.45-.3.59-.53.1-.2.17-.4.21-.61.04-.37.06-.74.06-1.1v-2.8c0-.36-.02-.73-.07-1.1-.03-.22-.1-.43-.2-.6a1.24 1.24 0 00-.6-.54c-.34-.13-.7-.18-1.07-.16zm7.82 8.58h-.89v-9.52h1.4l6.47 8.46v-8.45h.9v9.52h-1.3l-6.57-8.57v8.56h-.01zm12.98 0h-.9v-9.52h1.42l6.47 8.46v-8.45h.89v9.52H124l-6.57-8.57-.01 8.56zm12.05 0v-9.52h7.06v1.06h-6.16v2.99h5.92v1.04h-5.92v3.35h6.16v1.06l-7.06.02zm10.85 0v-9.52h.9v8.46h5.55v1.05l-6.45.01zm10 0v-9.52h.9v8.46h5.57v1.05l-6.46.01zm18.04 0h-.89v-9.52h5.11c.78-.08 1.56.09 2.24.48a2.33 2.33 0 01.56 1.78v1.14c.03.45-.07.9-.28 1.3-.25.3-.6.52-.98.6a1.17 1.17 0 01.88.56c.22.4.32.84.3 1.3v2.35h-.87v-2.12c.05-.45-.06-.9-.3-1.27-.42-.28-.92-.4-1.42-.34h-4.34v3.74h-.01zm4.5-8.46h-4.5v3.66h4.5c.45.06.92-.06 1.29-.32.25-.37.37-.83.31-1.28v-.45c.05-.45-.06-.9-.31-1.28-.37-.27-.83-.4-1.28-.35v.02zm9.74 8.58a6.56 6.56 0 01-1.7-.15 1.88 1.88 0 01-.9-.52c-.27-.3-.46-.67-.55-1.07a7.8 7.8 0 01-.17-1.75v-2.6c-.02-.63.05-1.27.17-1.89.08-.41.27-.8.55-1.1.24-.26.56-.43.9-.52a7.04 7.04 0 011.69-.16h2.39a7.3 7.3 0 011.7.16c.34.09.65.26.9.51.27.31.45.68.54 1.09.13.59.19 1.19.17 1.8v2.65a7.5 7.5 0 01-.17 1.8c-.09.4-.27.78-.54 1.08-.25.26-.56.43-.9.52-.56.12-1.13.17-1.7.15h-2.38zm2.81-8.7h-3.24c-.37-.02-.73.04-1.07.16-.25.1-.46.3-.59.53-.11.2-.18.42-.21.63-.06.41-.07.82-.07 1.23v2.5c0 .4.01.81.07 1.22.03.22.1.44.21.64.14.24.34.42.59.53.34.12.7.18 1.07.16h3.24c.36.02.73-.04 1.07-.16.25-.11.45-.3.58-.53.1-.2.18-.4.21-.61.04-.37.07-.74.06-1.1v-2.8c0-.36 0-.73-.06-1.1a1.9 1.9 0 00-.2-.6 1.26 1.26 0 00-.59-.54c-.35-.13-.7-.18-1.07-.16zm6.04 8.58l4.16-9.52h1.19l4.15 9.52H200l-.93-2.13h-5.68l-.89 2.13h-1.04zm2.36-3.07h4.83l-2.43-5.48-2.4 5.48zm15.87-6.44c.53-.02 1.06.03 1.59.14.32.08.63.24.88.47.3.3.52.68.63 1.1.16.57.22 1.16.2 1.75v2.58c.02.6-.04 1.19-.19 1.77-.12.41-.34.79-.64 1.1a2.2 2.2 0 01-.88.47c-.53.1-1.06.15-1.6.14h-5.38v-9.52h5.39zm.56 1.05h-5.06v7.4h5.06a1.68 1.68 0 001.4-.51c.33-.54.47-1.17.42-1.8v-2.77a3.2 3.2 0 00-.38-1.82 1.75 1.75 0 00-1.44-.5zM61.67 102.11v2.18H40.92v8.7H38.3V93.4h2.6v8.72h20.77zm0-23.4l-23.38 6.8v-2.25l20.93-6.1-20.93-5.84v-2.9l20.93-5.82-20.93-6.15v-2.31l23.38 6.84v3.13l-20.37 5.8 20.38 5.72v3.08h-.01zM61.95 37c.05 1.4-.07 2.8-.37 4.16-.2.84-.65 1.6-1.28 2.2a5.94 5.94 0 01-2.64 1.36c-1.4.32-2.85.46-4.3.42H47a21.2 21.2 0 01-4.6-.4 5.9 5.9 0 01-2.76-1.36 4.71 4.71 0 01-1.26-2.21 17.62 17.62 0 01-.37-4.16v-5.88c-.05-1.4.08-2.78.38-4.15.2-.84.64-1.6 1.25-2.22a5.9 5.9 0 012.66-1.33c1.46-.32 2.94-.46 4.42-.42h6.51c1.5-.04 2.98.1 4.43.42.98.2 1.9.67 2.64 1.33.62.6 1.06 1.35 1.26 2.19.3 1.37.42 2.78.38 4.19l.02 5.85h-.01zm-21.36-6.93v7.98c-.04.9.1 1.8.4 2.64.25.62.72 1.12 1.3 1.44.48.27 1 .45 1.54.54 1 .12 2 .18 3 .15h6.15c1.01.03 2.01-.03 3.01-.15a4.61 4.61 0 001.54-.54c.6-.31 1.07-.82 1.33-1.44.3-.84.44-1.73.4-2.62V30.1c.03-.9-.1-1.78-.4-2.62a2.96 2.96 0 00-1.3-1.44 5.04 5.04 0 00-1.5-.51c-.88-.12-1.78-.18-2.67-.16h-6.92c-.9-.02-1.82.04-2.71.16-.52.09-1.02.25-1.5.5-.58.33-1.04.84-1.3 1.45-.29.84-.41 1.73-.37 2.62v-.03z" fill="#000"/><path fill-rule="evenodd" clip-rule="evenodd" d="M91.42 108.98h9.43V68.85l-9.43-15.09v55.22zm107.75-81.16h9.48v81.12h-9.5l.02-81.12zm-4.15 4.7l-9.38 14.8v61.64h9.38V32.52zm-9.35 7.06v-11.8h7.46l-7.46 11.8zm-42.83 67.65l-4.3-7.02 43-69.83v15.7l-38.7 61.15zm3.85 1.69h9L181.5 67.9V53.88l-34.81 55.04zm-10.57-4.8l-3.03 4.82h5.97l-2.94-4.81zM93.67 27.47h8.5l38.6 61.44-4.66 7.38-42.44-68.82zm-2.24 4.23v14.33l38.12 60.67 4.1-6.55L91.43 31.7zm-13.57.47l9.42 14.98v61.81H77.8l.07-76.8zm9.44-4.7h-7.5l7.49 11.93.02-11.94-.01.01zm-13.62 85.59h31.3V75.39l23.71 37.66h29.23l23.58-37.4v37.4h31.27v-89.8h-31.68l-37.92 61.73-38.73-61.7h-30.7l-.06 89.77z" fill="#000"/></svg>
