<?xml version="1.0" standalone="no"?>
<!DOCTYPE svg PUBLIC "-//W3C//DTD SVG 20010904//EN"
 "http://www.w3.org/TR/2001/REC-SVG-20010904/DTD/svg10.dtd">
<svg version="1.0" xmlns="http://www.w3.org/2000/svg"
 width="250.000000pt" height="250.000000pt" viewBox="0 0 250.000000 250.000000"
 preserveAspectRatio="xMidYMid meet">
<metadata>
Created by potrace 1.14, written by Peter Selinger 2001-2017
</metadata>
<g transform="translate(0.000000,250.000000) scale(0.100000,-0.100000)"
fill="#000000" stroke="none">
<path d="M285 1849 c-32 -19 -35 -29 -35 -116 0 -91 16 -122 63 -124 151 -5
205 8 208 49 5 79 -3 168 -16 182 -20 19 -190 26 -220 9z m193 -31 c7 -7 12
-43 12 -90 0 -72 -2 -79 -22 -87 -37 -14 -168 -7 -179 10 -13 21 -11 153 3
167 7 7 43 12 93 12 50 0 86 -5 93 -12z"/>
<path d="M659 1842 c-1 -28 -1 -986 0 -999 1 -10 44 -13 179 -13 l178 0 -1
205 c0 113 3 205 6 205 3 0 64 -92 135 -205 l129 -205 169 3 170 2 85 136 c47
74 107 169 134 209 l47 75 0 -213 0 -212 180 0 180 0 0 515 0 515 -182 0 -183
0 -179 -293 c-219 -358 -250 -407 -256 -406 -3 0 -102 156 -221 347 l-216 347
-177 2 c-159 2 -176 0 -177 -15z m151 -99 l0 -67 -33 55 c-18 30 -36 60 -40
67 -6 9 2 12 32 12 l41 0 0 -67z m392 -283 c120 -190 218 -348 218 -353 0 -10
-43 -77 -50 -77 -3 0 -30 42 -60 93 -79 133 -158 260 -170 274 -5 7 -10 15
-10 18 0 3 -44 76 -98 163 -54 86 -101 164 -105 172 -4 8 -14 25 -23 38 l-17
23 49 -3 49 -3 217 -345z m807 335 c0 -6 -16 -35 -34 -65 l-34 -55 -1 65 0 65
35 0 c19 0 35 -5 34 -10z m189 -453 l2 -462 -54 0 -54 0 0 458 c0 290 4 459
10 463 5 3 28 6 51 5 l42 -2 3 -462z m-523 -84 c-119 -189 -220 -346 -223
-350 -4 -4 -17 10 -29 31 l-22 39 171 279 c94 153 203 330 242 393 l71 116 3
-83 3 -83 -216 -342z m-561 90 l226 -368 -17 -35 c-9 -19 -20 -35 -24 -35 -4
0 -18 17 -30 38 -13 20 -110 175 -216 344 l-193 307 0 78 c0 68 2 75 14 58 7
-11 115 -185 240 -387z m-304 -113 l0 -355 -53 0 -52 0 1 428 c1 235 2 429 3
432 1 3 24 -30 51 -73 l50 -77 0 -355z m1235 72 l0 -422 -52 -3 -53 -3 0 223
c-1 123 -1 266 -1 318 0 52 0 111 0 130 1 24 16 58 48 108 26 39 49 72 52 72
3 0 6 -190 6 -423z m-1093 52 c10 -18 13 -81 14 -251 l0 -228 -53 0 -53 0 0
313 0 312 39 -61 c22 -34 45 -73 53 -85z m792 -245 l-147 -234 -49 0 c-27 0
-48 4 -46 8 2 4 89 144 193 310 l190 301 3 -75 3 -75 -147 -235z m-344 -226
c0 -5 -14 -8 -30 -8 -30 0 -30 0 -14 25 15 24 17 24 30 8 7 -10 14 -21 14 -25z"/>
<path d="M252 1488 c2 -6 52 -26 111 -42 59 -17 107 -34 107 -37 0 -3 -17 -11
-37 -17 -177 -51 -184 -53 -181 -69 3 -15 62 -36 203 -72 37 -10 32 -12 -99
-49 -55 -16 -102 -35 -104 -42 -5 -15 5 -13 161 32 85 24 107 34 107 49 0 13
-15 22 -55 33 -180 52 -172 49 -145 57 14 4 64 20 113 34 116 35 118 53 10 84
-43 13 -85 24 -93 26 -8 2 -28 8 -43 14 -37 14 -60 14 -55 -1z"/>
<path d="M257 1053 c-4 -3 -7 -55 -7 -115 0 -89 3 -108 15 -108 14 0 21 33 17
83 -2 15 10 17 119 17 92 0 120 3 116 13 -3 9 -35 12 -118 12 -127 0 -114 -8
-118 75 -1 29 -10 38 -24 23z"/>
<path d="M588 732 c-10 -2 -19 -9 -19 -15 -9 -80 1 -99 49 -95 28 2 38 8 40
23 2 17 1 18 -7 4 -6 -9 -22 -15 -38 -15 -25 2 -28 6 -31 44 -3 42 -3 42 32
42 19 0 37 -6 39 -12 4 -8 6 -7 6 3 1 17 -37 28 -71 21z"/>
<path d="M715 732 c-3 -3 -5 -29 -5 -59 l0 -53 39 0 c22 0 44 6 51 15 8 9 9
15 2 15 -6 0 -13 -4 -16 -9 -3 -4 -18 -8 -33 -7 -26 1 -28 5 -31 44 l-3 42 35
0 c35 0 39 -4 39 -42 0 -10 4 -18 8 -18 11 0 12 41 1 57 -8 12 -77 24 -87 15z"/>
<path d="M880 730 c-22 -5 -25 -12 -28 -53 -3 -42 -1 -47 22 -53 40 -10 74 3
78 29 10 67 -13 91 -72 77z m60 -50 c0 -22 -3 -40 -7 -41 -5 0 -16 -2 -27 -4
-32 -6 -46 6 -46 39 0 41 5 46 47 46 32 0 33 -1 33 -40z"/>
<path d="M1318 732 c-23 -3 -27 -7 -25 -36 2 -26 6 -32 19 -28 10 2 18 9 18
14 0 5 -4 6 -10 3 -5 -3 -10 -1 -10 4 0 6 0 14 0 19 -1 4 16 9 37 12 27 4 32
7 18 10 -11 3 -32 4 -47 2z"/>
<path d="M1763 732 l-33 -3 1 -57 c1 -31 4 -47 6 -34 4 22 9 25 38 25 29 0 34
-3 38 -25 2 -13 4 0 4 29 1 59 -8 70 -54 65z m45 -33 c2 -12 -6 -18 -32 -21
-32 -4 -36 -2 -36 20 0 20 4 23 32 20 21 -2 34 -9 36 -19z"/>
<path d="M1888 726 c-16 -8 -23 -21 -24 -41 -1 -49 12 -65 51 -63 45 2 57 17
53 64 -2 31 -8 39 -30 45 -15 4 -36 2 -50 -5z m68 -33 c9 -35 -6 -57 -40 -59
-29 -1 -47 24 -40 56 1 8 3 18 3 23 1 4 17 7 36 7 29 0 36 -4 41 -27z"/>
<path d="M2155 732 c-3 -3 -5 -29 -5 -59 l0 -53 33 0 c51 0 69 19 65 65 -3 39
-4 40 -46 46 -23 3 -44 3 -47 1z m83 -46 c4 -35 -9 -49 -48 -52 -29 -2 -30 -1
-30 42 l0 45 38 -3 c32 -3 37 -6 40 -32z"/>
<path d="M252 700 c-1 -16 3 -30 9 -30 6 0 8 9 4 21 -11 35 10 13 30 -30 10
-22 22 -38 26 -35 5 3 18 24 29 47 l19 42 1 -49 c0 -64 10 -54 13 13 3 64 -12
66 -42 5 l-22 -47 -23 44 c-29 53 -41 58 -44 19z"/>
<path d="M457 713 c-2 -10 -12 -36 -21 -58 -12 -29 -13 -35 -3 -22 8 9 27 17
42 17 15 0 34 -8 42 -17 15 -19 15 -15 -6 32 -23 52 -27 59 -38 62 -6 2 -13
-4 -16 -14z m21 -51 c-27 -5 -30 0 -15 31 l12 27 12 -27 c10 -25 9 -28 -9 -31z"/>
<path d="M1002 673 l1 -58 6 49 6 50 29 -38 c15 -20 30 -35 33 -32 6 6 -57 86
-69 86 -4 0 -7 -26 -6 -57z"/>
<path d="M1089 680 c-5 -55 -4 -68 7 -58 3 3 4 30 2 59 l-3 54 -6 -55z"/>
<path d="M1148 713 c-2 -10 -1 -35 2 -58 l4 -40 6 50 5 50 30 -42 c45 -63 55
-62 55 3 0 30 -4 53 -8 50 -5 -3 -7 -24 -5 -47 l3 -42 -21 24 c-12 13 -28 34
-36 47 -18 26 -30 28 -35 5z"/>
<path d="M1422 678 l-2 -58 35 0 c19 0 35 4 35 9 0 4 -12 8 -27 7 -26 -1 -28
2 -34 49 l-6 50 -1 -57z"/>
<path d="M1530 721 c0 -6 4 -12 8 -15 5 -3 9 1 9 9 0 8 -4 15 -9 15 -4 0 -8
-4 -8 -9z"/>
<path d="M2030 684 c-21 -48 -27 -82 -9 -51 6 10 22 17 39 17 17 0 34 -7 40
-17 14 -21 9 -6 -15 55 -9 23 -21 42 -26 42 -6 0 -19 -21 -29 -46z m40 17 c0
-5 3 -16 6 -25 5 -12 0 -16 -20 -16 -24 0 -25 2 -14 25 11 24 28 34 28 16z"/>
<path d="M1340 678 c0 -4 4 -8 9 -8 6 0 12 4 15 8 3 5 -1 9 -9 9 -8 0 -15 -4
-15 -9z"/>
<path d="M1533 675 c0 -8 4 -12 9 -9 4 3 8 9 8 15 0 5 -4 9 -8 9 -5 0 -9 -7
-9 -15z"/>
<path d="M254 649 c-3 -6 -2 -15 3 -20 5 -5 9 -1 9 11 0 23 -2 24 -12 9z"/>
<path d="M1292 639 c5 -16 78 -26 78 -11 0 6 -10 10 -22 9 -13 0 -31 3 -42 8
-14 6 -18 5 -14 -6z"/>
<path d="M1532 639 c3 -8 21 -15 44 -17 37 -3 43 10 6 14 -9 1 -25 5 -36 9
-14 6 -18 5 -14 -6z"/>
</g>
</svg>
